PathFileType	3	(X/Y/Z)	D:\Jess\PFP\Labelled\PA02\20250516\SRRun01.trc
DataRate	CameraRate	NumFrames	NumMarkers	Units	OrigDataRate	OrigDataStartFrame	OrigNumFrames
250.0	250.0	4	37	mm	250.0	36563	2501
Frame#	Time	C7			T10			CLAV			LSHO			RSHO			LASIS			RASIS			LPSIS			RPSIS			LILCR			RILCR			LGTR			LTHI			LLTHI			LLEP			LMEP			LPSH			LLSH			LDSH			LLMAL			LMMAL			LTOE			L5TH			LHEE			RGTR			RTHI			RLTHI			RLEP			RMEP			RPSH			RLSH			RDSH			RLMAL			RMMAL			RTOE			R5TH			RHEE			
		X1	Y1	Z1	X2	Y2	Z2	X3	Y3	Z3	X4	Y4	Z4	X5	Y5	Z5	X6	Y6	Z6	X7	Y7	Z7	X8	Y8	Z8	X9	Y9	Z9	X10	Y10	Z10	X11	Y11	Z11	X12	Y12	Z12	X13	Y13	Z13	X14	Y14	Z14	X15	Y15	Z15	X16	Y16	Z16	X17	Y17	Z17	X18	Y18	Z18	X19	Y19	Z19	X20	Y20	Z20	X21	Y21	Z21	X22	Y22	Z22	X23	Y23	Z23	X24	Y24	Z24	X25	Y25	Z25	X26	Y26	Z26	X27	Y27	Z27	X28	Y28	Z28	X29	Y29	Z29	X30	Y30	Z30	X31	Y31	Z31	X32	Y32	Z32	X33	Y33	Z33	X34	Y34	Z34	X35	Y35	Z35	X36	Y36	Z36	X37	Y37	Z37	

1564	146.248	769.0828956876968	1538.883948937728	-330.1187541216926	686.9123122687342	1281.243488983041	-288.1250094942955	901.0058106006657	1445.562981463302	-365.8337949155874	794.4456166827739	1492.391777341399	-504.143478007994	880.1673123223843	1489.175263252722	-183.5454533129438	860.5706730990728	1019.008598785458	-470.8369555390468	877.0212399734514	970.6460152643333	-225.4022403068575	665.256745627529	1086.818305582373	-361.0826400200744	658.5165038563524	1087.07602257737	-310.8462824249571	782.0002539808861	1116.229668684638	-521.7683587532393	802.8355839256041	1052.375587140871	-143.6296597262809	816.2538624392391	937.5999747866505	-546.1632583842876	947.4596901331748	817.2454694431823	-448.515454429216	867.8637846796983	678.697521011916	-505.6533947484087	902.7304792944427	564.1911668730042	-484.4200776134531	nan	nan	nan	970.9681969162958	453.0793098441251	-438.9311623697456	891.4440028530488	336.2689692519878	-498.2936267782805	961.7746477560509	257.7067400337937	-441.1722645629036	905.5054648154787	141.1032159247753	-473.7884508747587	nan	nan	nan	1057.93345592394	106.5669763842396	-467.5009062065953	1024.66249022349	69.16383961227012	-506.3684045759205	848.5399909840201	108.3123349441508	-415.2846093614914	747.0118453859393	898.8885011578132	-125.5156398438588	816.1247267726656	737.3453422122659	-247.6424970785746	653.6103914515119	685.3042270820291	-189.146863622776	602.9672345303238	565.25216493752	-219.6181653095438	nan	nan	nan	588.6342981638153	450.9920859364927	-280.2546627833916	477.025282189587	390.8820595744444	-223.4542947319457	482.6092564613312	268.8220718305615	-290.9078829840998	380.3016130526186	200.683482802624	-271.2344722421686	nan	nan	nan	435.6852564117211	67.9924520380137	-293.7283706545726	395.3361820821953	69.34355118416887	-265.8876670861089	333.1203867211177	244.6854884561031	-340.9117766532574	
1565	146.252	769.103079562622	1539.586849934303	-330.0532140992007	687.5081290581192	1282.524996157196	-287.5085268925188	900.7884042981246	1446.964738889386	-366.3607502780577	793.9497105048709	1493.202091032578	-503.905211233433	880.3979065875426	1490.616311864665	-184.6019488328998	861.1611902044999	1022.015613815894	-470.5945459252484	878.0881723314437	971.9815523355661	-226.3752886517238	666.3012040908936	1088.932974388761	-360.6589207117052	659.4185266615885	1089.124341836644	-310.4451301067145	782.7043550090744	1118.830964953163	-521.4514929595579	805.5585827988225	1054.18106258946	-144.8316222960754	816.7805838823789	939.9765585255512	-546.3215742723455	947.4026350855834	818.1323793593372	-448.727862735765	866.8447316594536	680.0564740711199	-506.0741911456975	901.3955997178329	564.2272604783647	-484.6922076812692	nan	nan	nan	972.05832241185	454.2241190091551	-438.7493988127178	895.8795054917179	335.3144444416268	-497.7454193318222	968.0752332642044	258.8345066343221	-440.006774969036	915.3044553068771	140.208668762362	-472.2082231097201	nan	nan	nan	1068.64502374768	108.9952399321831	-464.0442684539979	1036.648334614404	70.08196914385931	-502.4414231969302	858.7239633576221	106.8760965263692	-413.7930631810087	747.9468250602448	900.5486355057747	-125.4963836428634	815.5314231356307	738.0583377648035	-247.5733698761161	652.0621214253619	688.1511321482423	-189.2404051596252	600.7574069225967	568.2603701355578	-219.6492309032708	nan	nan	nan	586.1507448277579	453.5835870159847	-279.5689764679584	473.2868109516872	394.7343812878401	-223.142462585456	478.7834243653391	271.6930916083899	-289.5407614801186	375.8527734727277	204.6403145508851	-270.4464681141305	nan	nan	nan	428.013740683868	69.89254203487303	-292.7753278731673	387.2165473247276	72.35970220111369	-265.7134753123809	330.8388548711452	250.1802195174998	-340.2742403454694	
1566	146.256	769.1354713040582	1540.134607512054	-330.0747821911188	688.0605378079101	1283.616879092104	-287.0019790388422	900.5875623544168	1448.182450341477	-366.8524832933613	793.4911710382556	1493.845442500619	-503.7070399070238	880.5522923123684	1491.898948362566	-185.6244770593297	861.7562187747982	1024.843213790705	-470.3163366322752	879.0808902936232	973.1503922692708	-227.3474082361637	667.2901178570344	1090.928647872912	-360.2527446103329	660.2763856394188	1091.053759429223	-310.0496231509764	783.4946960378114	1121.23262103047	-521.1828549243506	808.2484363226816	1055.901578644102	-146.0753632918043	817.2659572756147	942.1676138146582	-546.4705306480917	947.266385774183	818.747411002733	-448.9716569810266	865.8948506197194	681.2337978261628	-506.5412062183448	900.1685323770237	564.1866032232186	-484.982513148711	nan	nan	nan	973.0298269551514	455.2661301193703	-438.5164091849681	900.062428827705	334.4692066418737	-497.182040840825	973.9259754006277	260.0006549238421	-438.8353396680268	924.4714276658902	139.483436844053	-470.601037621587	nan	nan	nan	1078.596811923633	111.3567038861281	-460.6243361455897	1047.825315620133	70.9482018378782	-498.414408052844	868.2686325907954	105.7445480343312	-412.2177179483069	748.842605733544	902.1179413925734	-125.4446749698615	815.1337888567932	738.6694873640233	-247.4170757337997	650.8298018955093	690.7351687244926	-189.3398408893055	599.0582510640961	570.8875296544001	-219.6792600957769	nan	nan	nan	584.0546289567638	455.7781847868188	-278.8662396251221	469.8890023466012	398.3235148214466	-222.8880588694194	475.0039337134207	274.4118834428729	-288.300701626808	371.3080095839767	208.6649471815987	-269.7763032066192	nan	nan	nan	420.3055919344706	72.02150687150629	-291.8033194465302	379.0795621982461	75.61097512556644	-265.5410293433915	328.4934221158094	255.5796842016171	-339.7985419289659	
1567	146.26	769.1787811029324	1540.53372655703	-330.1866456390302	688.5657312347405	1284.51650386527	-286.6032301337967	900.4036507847374	1449.215038594514	-367.3117449341127	793.0716504839744	1494.324400408427	-503.5557383746169	880.6393356623914	1493.021134945394	-186.6049158984223	862.3473841704879	1027.473078031691	-470.008958390031	879.9991898264677	974.153046353882	-228.3152555846524	668.2159773215396	1092.803596968857	-359.8636119810581	661.09111783461	1092.859580448206	-309.6581321314426	784.3459149295858	1123.426166050704	-520.971175953343	810.8897253640318	1057.53006394845	-147.3588000117319	817.7052904811957	944.1582451207302	-546.6057607508676	947.0438258351525	819.0799408923111	-449.2440684892093	865.0173918564188	682.2142169104288	-507.0464139759677	899.0649507389179	564.074003671878	-485.2763679403164	nan	nan	nan	973.887696380703	456.2043976934545	-438.2199891003742	903.9703523094986	333.7289197739191	-496.604247455847	979.3073593303862	261.1755710159605	-437.668015358646	932.9632357013414	138.8944880262423	-468.9879541310474	nan	nan	nan	1087.757203399987	113.6059589489541	-457.269361363622	1058.152923027922	71.72383062116104	-494.3243512448971	877.1248432128855	104.8738482171134	-410.5863959270553	749.7062140581876	903.5895828290955	-125.3648461790203	814.9462041376066	739.176416123378	-247.1883622322407	649.9337573524823	693.0228389193503	-189.4456855411344	597.8751418725781	573.1014283797455	-219.7113488100509	nan	nan	nan	582.3255371622122	457.554116358093	-278.1630979165353	466.8323051215133	401.6343289004187	-222.6922801324239	471.2616473619702	276.9787212175763	-287.1971767536048	366.6663950167007	212.7577476730345	-269.2273348836422	nan	nan	nan	412.5567865980552	74.38204502971868	-290.8158682321474	370.9289949877633	79.09529708030033	-265.3622754177811	326.0679263613916	260.8824888269006	-339.4899325372185	
